<mxfile host="app.diagrams.net" modified="2022-12-27T21:17:03.891Z" agent="5.0 (Windows NT 10.0; Win64; x64) AppleWebKit/537.36 (KHTML, like Gecko) Chrome/108.0.0.0 Safari/537.36" version="20.7.4" etag="Vp2_pa7-fBDqOSOtLksA" type="github">
  <diagram id="t5ThZglBCMrRRL8-HuUK" name="Página-1">
    <mxGraphModel dx="1235" dy="606" grid="1" gridSize="10" guides="1" tooltips="1" connect="1" arrows="1" fold="1" page="1" pageScale="1" pageWidth="827" pageHeight="1169" math="0" shadow="0">
      <root>
        <mxCell id="0" />
        <mxCell id="1" parent="0" />
        <mxCell id="XqXsXuCe_wsq-RO8zfuG-30" style="edgeStyle=orthogonalEdgeStyle;rounded=0;orthogonalLoop=1;jettySize=auto;html=1;exitX=0.5;exitY=1;exitDx=0;exitDy=0;entryX=0.5;entryY=0;entryDx=0;entryDy=0;fontSize=18;" edge="1" parent="1" source="XqXsXuCe_wsq-RO8zfuG-1" target="XqXsXuCe_wsq-RO8zfuG-3">
          <mxGeometry relative="1" as="geometry" />
        </mxCell>
        <mxCell id="XqXsXuCe_wsq-RO8zfuG-1" value="Quantidade Inicial" style="rounded=0;whiteSpace=wrap;html=1;" vertex="1" parent="1">
          <mxGeometry x="180" y="190" width="120" height="60" as="geometry" />
        </mxCell>
        <mxCell id="XqXsXuCe_wsq-RO8zfuG-34" style="edgeStyle=orthogonalEdgeStyle;rounded=0;orthogonalLoop=1;jettySize=auto;html=1;exitX=0.5;exitY=1;exitDx=0;exitDy=0;entryX=0.5;entryY=0;entryDx=0;entryDy=0;fontSize=18;" edge="1" parent="1" source="XqXsXuCe_wsq-RO8zfuG-2" target="XqXsXuCe_wsq-RO8zfuG-1">
          <mxGeometry relative="1" as="geometry" />
        </mxCell>
        <mxCell id="XqXsXuCe_wsq-RO8zfuG-2" value="Inicio/Start" style="ellipse;whiteSpace=wrap;html=1;aspect=fixed;" vertex="1" parent="1">
          <mxGeometry x="200" y="60" width="80" height="80" as="geometry" />
        </mxCell>
        <UserObject label="" link="NÃO" id="XqXsXuCe_wsq-RO8zfuG-5">
          <mxCell style="edgeStyle=orthogonalEdgeStyle;rounded=0;orthogonalLoop=1;jettySize=auto;html=1;entryX=0;entryY=0.5;entryDx=0;entryDy=0;startArrow=none;" edge="1" parent="1" source="XqXsXuCe_wsq-RO8zfuG-6" target="XqXsXuCe_wsq-RO8zfuG-4">
            <mxGeometry relative="1" as="geometry">
              <Array as="points">
                <mxPoint x="400" y="340" />
                <mxPoint x="400" y="340" />
              </Array>
            </mxGeometry>
          </mxCell>
        </UserObject>
        <mxCell id="XqXsXuCe_wsq-RO8zfuG-31" style="edgeStyle=orthogonalEdgeStyle;rounded=0;orthogonalLoop=1;jettySize=auto;html=1;exitX=0.5;exitY=1;exitDx=0;exitDy=0;entryX=0.5;entryY=0;entryDx=0;entryDy=0;fontSize=18;startArrow=none;" edge="1" parent="1" source="XqXsXuCe_wsq-RO8zfuG-32" target="XqXsXuCe_wsq-RO8zfuG-7">
          <mxGeometry relative="1" as="geometry" />
        </mxCell>
        <mxCell id="XqXsXuCe_wsq-RO8zfuG-3" value="Peças para entrada?" style="rhombus;whiteSpace=wrap;html=1;" vertex="1" parent="1">
          <mxGeometry x="200" y="300" width="80" height="80" as="geometry" />
        </mxCell>
        <mxCell id="XqXsXuCe_wsq-RO8zfuG-4" value="Subtrai a Quantidade que foi inserida da anterior" style="rounded=0;whiteSpace=wrap;html=1;" vertex="1" parent="1">
          <mxGeometry x="440" y="310" width="120" height="60" as="geometry" />
        </mxCell>
        <mxCell id="XqXsXuCe_wsq-RO8zfuG-7" value="Soma a quantidade Inserida à anterior" style="rounded=0;whiteSpace=wrap;html=1;" vertex="1" parent="1">
          <mxGeometry x="180" y="460" width="120" height="60" as="geometry" />
        </mxCell>
        <mxCell id="XqXsXuCe_wsq-RO8zfuG-16" style="edgeStyle=orthogonalEdgeStyle;rounded=0;orthogonalLoop=1;jettySize=auto;html=1;exitX=0.5;exitY=0;exitDx=0;exitDy=0;entryX=0;entryY=0.5;entryDx=0;entryDy=0;fontSize=18;startArrow=none;" edge="1" parent="1" source="XqXsXuCe_wsq-RO8zfuG-10" target="XqXsXuCe_wsq-RO8zfuG-7">
          <mxGeometry relative="1" as="geometry">
            <Array as="points">
              <mxPoint x="120" y="510" />
              <mxPoint x="120" y="470" />
            </Array>
          </mxGeometry>
        </mxCell>
        <mxCell id="XqXsXuCe_wsq-RO8zfuG-21" style="edgeStyle=orthogonalEdgeStyle;rounded=0;orthogonalLoop=1;jettySize=auto;html=1;exitX=1;exitY=0.5;exitDx=0;exitDy=0;fontSize=18;entryX=0;entryY=0.5;entryDx=0;entryDy=0;startArrow=none;" edge="1" parent="1" source="XqXsXuCe_wsq-RO8zfuG-22" target="XqXsXuCe_wsq-RO8zfuG-20">
          <mxGeometry relative="1" as="geometry">
            <mxPoint x="450" y="590" as="targetPoint" />
          </mxGeometry>
        </mxCell>
        <mxCell id="XqXsXuCe_wsq-RO8zfuG-8" value="Deseja inserir mais peças" style="rhombus;whiteSpace=wrap;html=1;" vertex="1" parent="1">
          <mxGeometry x="200" y="570" width="160" height="80" as="geometry" />
        </mxCell>
        <mxCell id="XqXsXuCe_wsq-RO8zfuG-6" value="&lt;font style=&quot;font-size: 18px;&quot;&gt;&lt;b style=&quot;&quot;&gt;Não&lt;/b&gt;&lt;/font&gt;" style="text;html=1;strokeColor=none;fillColor=none;align=center;verticalAlign=middle;whiteSpace=wrap;rounded=0;" vertex="1" parent="1">
          <mxGeometry x="320" y="325" width="60" height="30" as="geometry" />
        </mxCell>
        <mxCell id="XqXsXuCe_wsq-RO8zfuG-11" value="" style="edgeStyle=orthogonalEdgeStyle;rounded=0;orthogonalLoop=1;jettySize=auto;html=1;entryX=0;entryY=0.5;entryDx=0;entryDy=0;endArrow=none;" edge="1" parent="1" source="XqXsXuCe_wsq-RO8zfuG-3" target="XqXsXuCe_wsq-RO8zfuG-6">
          <mxGeometry relative="1" as="geometry">
            <mxPoint x="280" y="340" as="sourcePoint" />
            <mxPoint x="440" y="340" as="targetPoint" />
            <Array as="points" />
          </mxGeometry>
        </mxCell>
        <mxCell id="XqXsXuCe_wsq-RO8zfuG-10" value="&lt;b&gt;&lt;font style=&quot;font-size: 18px;&quot;&gt;Sim&lt;/font&gt;&lt;/b&gt;" style="text;html=1;strokeColor=none;fillColor=none;align=center;verticalAlign=middle;whiteSpace=wrap;rounded=0;" vertex="1" parent="1">
          <mxGeometry x="90" y="520" width="60" height="30" as="geometry" />
        </mxCell>
        <mxCell id="XqXsXuCe_wsq-RO8zfuG-19" value="" style="edgeStyle=orthogonalEdgeStyle;rounded=0;orthogonalLoop=1;jettySize=auto;html=1;exitX=0;exitY=0.5;exitDx=0;exitDy=0;fontSize=18;endArrow=none;" edge="1" parent="1" source="XqXsXuCe_wsq-RO8zfuG-8">
          <mxGeometry relative="1" as="geometry">
            <mxPoint x="200" y="610" as="sourcePoint" />
            <mxPoint x="120" y="550" as="targetPoint" />
            <Array as="points">
              <mxPoint x="120" y="610" />
            </Array>
          </mxGeometry>
        </mxCell>
        <mxCell id="XqXsXuCe_wsq-RO8zfuG-20" value="Fim" style="ellipse;whiteSpace=wrap;html=1;aspect=fixed;fontSize=18;" vertex="1" parent="1">
          <mxGeometry x="500" y="570" width="80" height="80" as="geometry" />
        </mxCell>
        <mxCell id="XqXsXuCe_wsq-RO8zfuG-22" value="&lt;b&gt;Não&lt;/b&gt;" style="text;html=1;strokeColor=none;fillColor=none;align=center;verticalAlign=middle;whiteSpace=wrap;rounded=0;fontSize=18;" vertex="1" parent="1">
          <mxGeometry x="390" y="595" width="60" height="30" as="geometry" />
        </mxCell>
        <mxCell id="XqXsXuCe_wsq-RO8zfuG-23" value="" style="edgeStyle=orthogonalEdgeStyle;rounded=0;orthogonalLoop=1;jettySize=auto;html=1;exitX=1;exitY=0.5;exitDx=0;exitDy=0;fontSize=18;entryX=0;entryY=0.5;entryDx=0;entryDy=0;endArrow=none;" edge="1" parent="1" source="XqXsXuCe_wsq-RO8zfuG-8" target="XqXsXuCe_wsq-RO8zfuG-22">
          <mxGeometry relative="1" as="geometry">
            <mxPoint x="500" y="610" as="targetPoint" />
            <mxPoint x="360" y="610" as="sourcePoint" />
          </mxGeometry>
        </mxCell>
        <mxCell id="XqXsXuCe_wsq-RO8zfuG-24" value="Deseja remover peças" style="rhombus;whiteSpace=wrap;html=1;" vertex="1" parent="1">
          <mxGeometry x="430" y="420" width="160" height="80" as="geometry" />
        </mxCell>
        <mxCell id="XqXsXuCe_wsq-RO8zfuG-29" style="edgeStyle=orthogonalEdgeStyle;rounded=0;orthogonalLoop=1;jettySize=auto;html=1;exitX=0.5;exitY=0;exitDx=0;exitDy=0;entryX=1;entryY=0.5;entryDx=0;entryDy=0;fontSize=18;" edge="1" parent="1" source="XqXsXuCe_wsq-RO8zfuG-26" target="XqXsXuCe_wsq-RO8zfuG-4">
          <mxGeometry relative="1" as="geometry" />
        </mxCell>
        <mxCell id="XqXsXuCe_wsq-RO8zfuG-26" value="&lt;b&gt;Sim&lt;/b&gt;" style="text;html=1;strokeColor=none;fillColor=none;align=center;verticalAlign=middle;whiteSpace=wrap;rounded=0;fontSize=18;" vertex="1" parent="1">
          <mxGeometry x="610" y="380" width="60" height="20" as="geometry" />
        </mxCell>
        <mxCell id="XqXsXuCe_wsq-RO8zfuG-28" value="" style="edgeStyle=orthogonalEdgeStyle;rounded=0;orthogonalLoop=1;jettySize=auto;html=1;exitX=1;exitY=0.5;exitDx=0;exitDy=0;fontSize=18;endArrow=none;" edge="1" parent="1" source="XqXsXuCe_wsq-RO8zfuG-24">
          <mxGeometry relative="1" as="geometry">
            <mxPoint x="590" y="460" as="sourcePoint" />
            <mxPoint x="640" y="400" as="targetPoint" />
            <Array as="points">
              <mxPoint x="640" y="460" />
            </Array>
          </mxGeometry>
        </mxCell>
        <mxCell id="XqXsXuCe_wsq-RO8zfuG-32" value="&lt;b&gt;Sim&lt;/b&gt;" style="text;html=1;strokeColor=none;fillColor=none;align=center;verticalAlign=middle;whiteSpace=wrap;rounded=0;fontSize=18;" vertex="1" parent="1">
          <mxGeometry x="225" y="400" width="30" height="20" as="geometry" />
        </mxCell>
        <mxCell id="XqXsXuCe_wsq-RO8zfuG-33" value="" style="edgeStyle=orthogonalEdgeStyle;rounded=0;orthogonalLoop=1;jettySize=auto;html=1;exitX=0.5;exitY=1;exitDx=0;exitDy=0;entryX=0.5;entryY=0;entryDx=0;entryDy=0;fontSize=18;endArrow=none;" edge="1" parent="1" source="XqXsXuCe_wsq-RO8zfuG-3" target="XqXsXuCe_wsq-RO8zfuG-32">
          <mxGeometry relative="1" as="geometry">
            <mxPoint x="240" y="380" as="sourcePoint" />
            <mxPoint x="240" y="440" as="targetPoint" />
          </mxGeometry>
        </mxCell>
      </root>
    </mxGraphModel>
  </diagram>
</mxfile>
